<?xml version="1.0" encoding="utf-8"?>
<!-- Generator: Adobe Illustrator 16.0.4, SVG Export Plug-In . SVG Version: 6.00 Build 0)  -->
<!DOCTYPE svg PUBLIC "-//W3C//DTD SVG 1.1//EN" "http://www.w3.org/Graphics/SVG/1.1/DTD/svg11.dtd">
<svg version="1.1" id="Layer_1" xmlns="http://www.w3.org/2000/svg" xmlns:xlink="http://www.w3.org/1999/xlink" x="0px" y="0px"
	 width="100px" height="100px" viewBox="0 0 100 100" enable-background="new 0 0 100 100" xml:space="preserve">
<polygon fill="#D9534F" stroke="#FF8872" stroke-miterlimit="10" points="-160.404,-122.305 -242.604,-122.305 -242.604,-204.5 
	-347.204,-204.5 -347.204,-122.305 -429.394,-122.305 -429.394,-17.707 -347.204,-17.707 -347.204,64.488 -242.604,64.488 
	-242.604,-17.707 -160.404,-17.707 "/>
<g>
	<g>
		<path fill="#FFFFFF" d="M-117.671,72.92v-90.518c0-12.848,10.51-23.305,23.438-23.305c12.86,0,23.286,10.462,23.286,23.305
			v123.956c0,17.144-6.171,33.691-17.233,46.638l-77.313,82.076c-7.658,7.224-9.556,13.617-9.556,23.319v14.943h-84.126
			l-0.104-35.562c0-13.551-1.105-31.643,15.864-49.399l98.083-98.484c3.484-3.381,8.063-5.223,12.927-5.223
			c10.265,0,18.611,8.324,18.611,18.574c0,4.43-1.567,8.735-4.429,12.097l-47.327,50.698c-3.045,3.594-8.248,10.373-10.812,18.664
			c-1.397,4.32-1.794,8.522-1.865,13.323h15.218c0.066-3.422,0.302-6.161,1.123-8.738c1.502-4.783,4.467-9.104,6.705-11.861
			l48.021-52.709c6.044-6.086,9.363-13.976,9.363-22.247C-97.808,90.002-105.296,78.576-117.671,72.92z"/>
	</g>
</g>
<g>
	<g>
		<path fill="#FFFFFF" d="M-472.153,72.92v-90.518c0-12.848-10.51-23.305-23.437-23.305c-12.875-0.01-23.281,10.462-23.281,23.305
			v123.956c0,17.144,6.156,33.691,17.233,46.638l77.306,82.076c7.663,7.224,9.549,13.617,9.549,23.319v14.943h84.138l0.101-35.562
			c0-13.551,1.107-31.643-15.833-49.399l-98.091-98.484c-3.506-3.352-8.093-5.203-12.947-5.203
			c-10.254,0-18.609,8.329-18.609,18.555c0,4.453,1.556,8.744,4.419,12.125l47.336,50.68c3.041,3.584,8.244,10.368,10.819,18.654
			c1.379,4.32,1.78,8.522,1.872,13.338h-15.245c-0.052-3.442-0.314-6.194-1.122-8.753c-1.485-4.793-4.462-9.094-6.695-11.847
			l-48.038-52.724c-6.034-6.096-9.337-13.976-9.337-22.257C-492.014,90.002-484.54,78.576-472.153,72.92z"/>
	</g>
</g>
</svg>
